<svg xmlns="http://www.w3.org/2000/svg" viewBox="0 0 305 87"><title>netcup_logo_white</title><path d="M254.7119,77.1527h5.8368V87H242.9323V26.2537h-5.2936V16.3989h34.9029c7.0207,0,10.4814,3.5436,10.4814,10.7321v29.22c0,6.9678-3.5674,10.5114-10.8022,10.5114H261.5185V57.0163h6.4859c2.3752,0,3.5674-1.222,3.5674-3.7659V30.1256c0-2.5514-1.1922-3.8719-3.4608-3.8719H254.7119Zm-22.2454-10.29H200.0538c-7.0281,0-10.5882-3.5436-10.5882-10.6247V25.1451h-5.1869V16.3989H201.131V52.8073c0,2.7647,1.2988,4.209,3.7816,4.209h10.4807V16.3989h11.6729V57.0163h5.4Zm-55.9031,0H140.3691V34.2212c0-11.8407,6.2639-17.8223,18.907-17.8223H176.67v16.936H166.625V26.2537h-8.2121c-4.3239,0-6.4858,2.4291-6.4858,7.1871V57.0163h24.6363Zm-45.0633,0H118.6355c-5.7215,0-8.5328-3.1005-8.5328-9.1819V26.2537h-6.4855V16.3989h6.4855V.9058h11.5579V16.3989h9.7246v9.8548h-9.7246V53.4712c0,2.544,1.4059,3.7659,4.11,3.651h3.1317a19.68,19.68,0,0,0,2.5976-.1059Zm-34.384-19.365H71.0743v6.5321c0,1.9859.97,2.987,2.8109,2.987H95.8173v9.8459h-26.47c-6.4855,0-9.7247-3.2079-9.7247-9.74V27.3534c0-7.3035,3.7815-10.9545,11.2371-10.9545H86.6353c6.9133,0,10.3737,3.43,10.4808,10.4039Zm-26.0418-9.74H85.7719V29.4616c0-2.1082-.9777-3.2079-2.9181-3.2079H74.2064c-2.0552,0-3.1321,1.2145-3.1321,3.651ZM32.9471,66.8622V29.1259c0-1.88-1.0847-2.8722-3.2466-2.8722H17.386V66.8622H5.7136V26.2537H.3128V16.3989H34.9945c6.3788,0,9.6176,3.3227,9.6176,10.0757V57.0163h5.4008v9.8459Z" style="fill:#fff;fill-rule:evenodd"/><path d="M295.5963,16.0066a7.0492,7.0492,0,0,1-7.2109-6.838,7.2893,7.2893,0,0,1,7.2109-7.2572c3.927,0,7.7,3.278,7.7,7.2572,0,3.8047-3.7734,6.838-7.7,6.838m-8.6015-6.838a8.4061,8.4061,0,0,0,8.6015,8.2285c4.9274,0,9.0909-3.7061,9.0909-8.2285A8.9521,8.9521,0,0,0,295.5963.53a8.6084,8.6084,0,0,0-8.6015,8.6388m6.5776-.5341V5.5788h2.2149c1.1384,0,2.3223.1612,2.3223,1.4816,0,1.5055-1.3062,1.5741-2.7878,1.5741Zm-1.3905,5.3623h1.3905V10.025h1.7494l2.9334,3.9718h1.436L296.85,9.91A2.5986,2.5986,0,0,0,299.5,7.129c0-1.9859-1.1-2.9408-3.4145-2.9408h-3.9038Z" style="fill:#fff;fill-rule:evenodd"/></svg>